# xmcd
#
# Track frame offsets: 
#        150
#        13972
#        30822
#        50678
#        64472
#        79019
#        90648
#        108982
#        124857
#        141307
#        155412
#        171684
#        189843
#        207056
#        219773
#        234297
#        250760
#        263507
#        276040
#        291592
#        312024
#
# Disc length: 4431 seconds
#
# Revision: 0
# Processed by: cddbd v1.5.2PL0 Copyright (c) Steve Scherf et al.
# Submitted via: ExactAudioCopy v0.99pb4
#
DISCID=26114d15
DTITLE=Kelli Lidell - Just Kelli
DYEAR=1900
DGENRE=Country
TTITLE0=I'll Go Honkey Tonkin' Too
TTITLE1=Chasing Ghosts
TTITLE2=Two Out Of Three Ain't Bad
TTITLE3=Today I Started Loving You Again
TTITLE4=You've Got Your Eyes Wide Open
TTITLE5=I'm So Lonesome I Could Cry
TTITLE6=My Strongest Weakness
TTITLE7=Someday
TTITLE8=I'll Always Love You
TTITLE9=Empty Eyes
TTITLE10=Return To El Paso
TTITLE11=I've Got Dreams
TTITLE12=Rears For Two
TTITLE13=Crazy
TTITLE14=One More Time
TTITLE15=For The Good Times
TTITLE16=Call Her
TTITLE17=Walking After Midnight
TTITLE18=Your Cheatin' Heart
TTITLE19=Here Today Gone Tomorrow
TTITLE20=Love Is Blind
EXTD=
EXTT0=
EXTT1=
EXTT2=
EXTT3=
EXTT4=
EXTT5=
EXTT6=
EXTT7=
EXTT8=
EXTT9=
EXTT10=
EXTT11=
EXTT12=
EXTT13=
EXTT14=
EXTT15=
EXTT16=
EXTT17=
EXTT18=
EXTT19=
EXTT20=
PLAYORDER=
